# MagicaVoxel @ Ephtracy

# group
o 

# material
mtllib Chair.mtl
usemtl palette

# normals
vn -1 0 0
vn 1 0 0
vn 0 0 1
vn 0 0 -1
vn 0 -1 0
vn 0 1 0

# texcoords
vt 0.865234 0.5
vt 0.869141 0.5

# verts
v -0.7 1 0.5
v -0.7 1 0.4
v -0.7 1 -0.5
v -0.7 1 -0.6
v -0.7 1.7 0.5
v -0.7 1.7 0.4
v -0.7 1.7 -0.5
v -0.7 1.7 -0.6
v -0.7 1.8 0.5
v -0.7 1.8 -0.6
v 0.5 1 0.5
v 0.5 1 0.4
v 0.5 1 -0.5
v 0.5 1 -0.6
v 0.5 1.7 0.5
v 0.5 1.7 0.4
v 0.5 1.7 -0.5
v 0.5 1.7 -0.6
v 0.5 1.8 0.5
v 0.5 1.8 0.4
v 0.5 1.8 -0.5
v 0.5 1.8 -0.6
v 0.5 1.9 0.4
v 0.5 1.9 -0.5
v 0.5 2.7 0.5
v 0.5 2.7 0.4
v 0.5 2.7 -0.5
v 0.5 2.7 -0.6
v 0.5 2.8 0.4
v 0.5 2.8 -0.5
v -0.6 1 0.5
v -0.6 1 0.4
v -0.6 1 -0.5
v -0.6 1 -0.6
v -0.6 1.7 0.5
v -0.6 1.7 0.4
v -0.6 1.7 -0.5
v -0.6 1.7 -0.6
v 0.6 1 0.5
v 0.6 1 0.4
v 0.6 1 -0.5
v 0.6 1 -0.6
v 0.6 1.7 0.5
v 0.6 1.7 0.4
v 0.6 1.7 -0.5
v 0.6 1.7 -0.6
v 0.6 1.9 0.4
v 0.6 1.9 -0.5
v 0.6 2.7 0.5
v 0.6 2.7 0.4
v 0.6 2.7 -0.5
v 0.6 2.7 -0.6
v 0.6 2.8 0.4
v 0.6 2.8 -0.5
v -0.7 1 0.5
v -0.7 1.7 0.5
v -0.7 1.8 0.5
v -0.6 1 0.5
v -0.6 1.7 0.5
v 0.5 1 0.5
v 0.5 1.7 0.5
v 0.5 1.8 0.5
v 0.5 2.7 0.5
v 0.6 1 0.5
v 0.6 1.7 0.5
v 0.6 2.7 0.5
v 0.5 2.7 0.4
v 0.5 2.8 0.4
v 0.6 2.7 0.4
v 0.6 2.8 0.4
v -0.7 1 -0.5
v -0.7 1.7 -0.5
v -0.6 1 -0.5
v -0.6 1.7 -0.5
v 0.5 1 -0.5
v 0.5 1.7 -0.5
v 0.6 1 -0.5
v 0.6 1.7 -0.5
v -0.7 1 0.4
v -0.7 1.7 0.4
v -0.6 1 0.4
v -0.6 1.7 0.4
v 0.5 1 0.4
v 0.5 1.7 0.4
v 0.6 1 0.4
v 0.6 1.7 0.4
v 0.5 2.7 -0.5
v 0.5 2.8 -0.5
v 0.6 2.7 -0.5
v 0.6 2.8 -0.5
v -0.7 1 -0.6
v -0.7 1.7 -0.6
v -0.7 1.8 -0.6
v -0.6 1 -0.6
v -0.6 1.7 -0.6
v 0.5 1 -0.6
v 0.5 1.7 -0.6
v 0.5 1.8 -0.6
v 0.5 2.7 -0.6
v 0.6 1 -0.6
v 0.6 1.7 -0.6
v 0.6 2.7 -0.6
v -0.7 1 0.5
v -0.6 1 0.5
v 0.5 1 0.5
v 0.6 1 0.5
v -0.7 1 0.4
v -0.6 1 0.4
v 0.5 1 0.4
v 0.6 1 0.4
v -0.7 1 -0.5
v -0.6 1 -0.5
v 0.5 1 -0.5
v 0.6 1 -0.5
v -0.7 1 -0.6
v -0.6 1 -0.6
v 0.5 1 -0.6
v 0.6 1 -0.6
v -0.6 1.7 0.5
v 0.5 1.7 0.5
v -0.7 1.7 0.4
v -0.6 1.7 0.4
v 0.5 1.7 0.4
v 0.6 1.7 0.4
v -0.7 1.7 -0.5
v -0.6 1.7 -0.5
v 0.5 1.7 -0.5
v 0.6 1.7 -0.5
v -0.6 1.7 -0.6
v 0.5 1.7 -0.6
v -0.7 1.8 0.5
v 0.5 1.8 0.5
v -0.6 1.8 0.4
v 0.5 1.8 0.4
v -0.6 1.8 -0.5
v 0.5 1.8 -0.5
v -0.7 1.8 -0.6
v 0.5 1.8 -0.6
v 0.5 2.7 0.5
v 0.6 2.7 0.5
v 0.5 2.7 0.4
v 0.6 2.7 0.4
v 0.5 2.7 -0.5
v 0.6 2.7 -0.5
v 0.5 2.7 -0.6
v 0.6 2.7 -0.6
v 0.5 2.8 0.4
v 0.6 2.8 0.4
v 0.5 2.8 -0.5
v 0.6 2.8 -0.5

# faces
f 5/2/1 2/2/1 1/2/1
f 6/2/1 2/2/1 5/2/1
f 7/2/1 4/2/1 3/2/1
f 8/2/1 4/2/1 7/2/1
f 9/1/1 6/1/1 5/1/1
f 9/1/1 7/1/1 6/1/1
f 9/1/1 8/1/1 7/1/1
f 10/1/1 8/1/1 9/1/1
f 15/2/1 12/2/1 11/2/1
f 16/2/1 12/2/1 15/2/1
f 17/2/1 14/2/1 13/2/1
f 18/2/1 14/2/1 17/2/1
f 23/1/1 20/1/1 19/1/1
f 23/1/1 22/1/1 21/1/1
f 23/1/1 21/1/1 20/1/1
f 24/1/1 22/1/1 23/1/1
f 25/1/1 23/1/1 19/1/1
f 26/2/1 24/2/1 23/2/1
f 26/1/1 23/1/1 25/1/1
f 27/1/1 22/1/1 24/1/1
f 27/2/1 24/2/1 26/2/1
f 28/1/1 22/1/1 27/1/1
f 29/1/1 27/1/1 26/1/1
f 30/1/1 27/1/1 29/1/1
f 31/2/2 32/2/2 35/2/2
f 35/2/2 32/2/2 36/2/2
f 33/2/2 34/2/2 37/2/2
f 37/2/2 34/2/2 38/2/2
f 39/2/2 40/2/2 43/2/2
f 43/2/2 40/2/2 44/2/2
f 41/2/2 42/2/2 45/2/2
f 45/2/2 42/2/2 46/2/2
f 43/1/2 44/1/2 47/1/2
f 44/1/2 45/1/2 47/1/2
f 45/1/2 46/1/2 47/1/2
f 47/1/2 46/1/2 48/1/2
f 43/1/2 47/1/2 49/1/2
f 47/2/2 48/2/2 50/2/2
f 49/1/2 47/1/2 50/1/2
f 48/1/2 46/1/2 51/1/2
f 50/2/2 48/2/2 51/2/2
f 51/1/2 46/1/2 52/1/2
f 50/1/2 51/1/2 53/1/2
f 53/1/2 51/1/2 54/1/2
f 58/2/3 56/2/3 55/2/3
f 59/1/3 57/1/3 56/1/3
f 59/2/3 56/2/3 58/2/3
f 61/1/3 57/1/3 59/1/3
f 62/1/3 57/1/3 61/1/3
f 64/2/3 61/2/3 60/2/3
f 65/1/3 63/1/3 62/1/3
f 65/2/3 61/2/3 64/2/3
f 65/1/3 62/1/3 61/1/3
f 66/1/3 63/1/3 65/1/3
f 69/1/3 68/1/3 67/1/3
f 70/1/3 68/1/3 69/1/3
f 73/2/3 72/2/3 71/2/3
f 74/2/3 72/2/3 73/2/3
f 77/2/3 76/2/3 75/2/3
f 78/2/3 76/2/3 77/2/3
f 79/2/4 80/2/4 81/2/4
f 81/2/4 80/2/4 82/2/4
f 83/2/4 84/2/4 85/2/4
f 85/2/4 84/2/4 86/2/4
f 87/1/4 88/1/4 89/1/4
f 89/1/4 88/1/4 90/1/4
f 91/2/4 92/2/4 94/2/4
f 92/1/4 93/1/4 95/1/4
f 94/2/4 92/2/4 95/2/4
f 95/1/4 93/1/4 97/1/4
f 97/1/4 93/1/4 98/1/4
f 96/2/4 97/2/4 100/2/4
f 98/1/4 99/1/4 101/1/4
f 100/2/4 97/2/4 101/2/4
f 97/1/4 98/1/4 101/1/4
f 101/1/4 99/1/4 102/1/4
f 107/2/5 104/2/5 103/2/5
f 108/2/5 104/2/5 107/2/5
f 109/2/5 106/2/5 105/2/5
f 110/2/5 106/2/5 109/2/5
f 115/2/5 112/2/5 111/2/5
f 116/2/5 112/2/5 115/2/5
f 117/2/5 114/2/5 113/2/5
f 118/2/5 114/2/5 117/2/5
f 122/1/5 120/1/5 119/1/5
f 123/1/5 120/1/5 122/1/5
f 125/1/5 122/1/5 121/1/5
f 126/2/5 123/2/5 122/2/5
f 126/1/5 122/1/5 125/1/5
f 127/1/5 124/1/5 123/1/5
f 127/2/5 123/2/5 126/2/5
f 128/1/5 124/1/5 127/1/5
f 129/1/5 127/1/5 126/1/5
f 130/1/5 127/1/5 129/1/5
f 131/1/6 132/1/6 133/1/6
f 133/1/6 132/1/6 134/1/6
f 131/1/6 133/1/6 135/1/6
f 133/2/6 134/2/6 135/2/6
f 135/2/6 134/2/6 136/2/6
f 131/1/6 135/1/6 137/1/6
f 135/1/6 136/1/6 137/1/6
f 137/1/6 136/1/6 138/1/6
f 139/1/6 140/1/6 141/1/6
f 141/1/6 140/1/6 142/1/6
f 143/1/6 144/1/6 145/1/6
f 145/1/6 144/1/6 146/1/6
f 147/1/6 148/1/6 149/1/6
f 149/1/6 148/1/6 150/1/6
