# MagicaVoxel @ Ephtracy

# group
o 

# material
mtllib Server_1.mtl
usemtl palette

# normals
vn -1 0 0
vn 1 0 0
vn 0 0 1
vn 0 0 -1
vn 0 -1 0
vn 0 1 0

# texcoords
vt 0.900391 0.5
vt 0.986328 0.5
vt 0.990234 0.5
vt 0.994141 0.5

# verts
v -0.9 -0.5 1.4
v -0.9 -0.5 -1.4
v -0.9 4.4 1.4
v -0.9 4.4 -1.4
v 0.8 -0.4 1.3
v 0.8 -0.4 1.2
v 0.8 -0.4 1
v 0.8 -0.4 -1.3
v 0.8 -0.3 1.3
v 0.8 -0.3 1.2
v 0.8 -0.3 1
v 0.8 -0.3 0.9
v 0.8 -0.2 1.3
v 0.8 -0.2 1.2
v 0.8 -0.2 1
v 0.8 -0.2 0.9
v 0.8 -0.1 1.2
v 0.8 -0.1 1
v 0.8 0.1 1.3
v 0.8 0.1 -1.3
v 0.8 0.2 1.3
v 0.8 0.2 1.2
v 0.8 0.2 1
v 0.8 0.2 -1.3
v 0.8 0.3 1.3
v 0.8 0.3 1.2
v 0.8 0.3 1
v 0.8 0.3 0.9
v 0.8 0.4 1.3
v 0.8 0.4 1.2
v 0.8 0.4 1
v 0.8 0.4 0.9
v 0.8 0.5 1.2
v 0.8 0.5 1
v 0.8 0.7 1.3
v 0.8 0.7 -1.3
v 0.8 0.8 1.3
v 0.8 0.8 1.2
v 0.8 0.8 1
v 0.8 0.8 -1.3
v 0.8 0.9 1.3
v 0.8 0.9 1.2
v 0.8 0.9 1
v 0.8 0.9 0.9
v 0.8 1 1.3
v 0.8 1 1.2
v 0.8 1 1
v 0.8 1 0.9
v 0.8 1.1 1.2
v 0.8 1.1 1
v 0.8 1.3 1.3
v 0.8 1.3 -1.3
v 0.8 1.4 1.3
v 0.8 1.4 1.2
v 0.8 1.4 1
v 0.8 1.4 -1.3
v 0.8 1.5 1.3
v 0.8 1.5 1.2
v 0.8 1.5 1
v 0.8 1.5 0.9
v 0.8 1.6 1.3
v 0.8 1.6 1.2
v 0.8 1.6 1
v 0.8 1.6 0.9
v 0.8 1.7 1.2
v 0.8 1.7 1
v 0.8 1.9 1.3
v 0.8 1.9 -1.3
v 0.8 2 1.3
v 0.8 2 1.2
v 0.8 2 1
v 0.8 2 -1.3
v 0.8 2.1 1.3
v 0.8 2.1 1.2
v 0.8 2.1 1
v 0.8 2.1 0.9
v 0.8 2.2 1.3
v 0.8 2.2 1.2
v 0.8 2.2 1
v 0.8 2.2 0.9
v 0.8 2.3 1.2
v 0.8 2.3 1
v 0.8 2.5 1.3
v 0.8 2.5 -1.3
v 0.8 2.6 1.3
v 0.8 2.6 1.2
v 0.8 2.6 1
v 0.8 2.6 -1.3
v 0.8 2.7 1.3
v 0.8 2.7 1.2
v 0.8 2.7 1
v 0.8 2.7 0.9
v 0.8 2.8 1.3
v 0.8 2.8 1.2
v 0.8 2.8 1
v 0.8 2.8 0.9
v 0.8 2.9 1.2
v 0.8 2.9 1
v 0.8 3.1 1.3
v 0.8 3.1 -1.3
v 0.8 3.2 1.3
v 0.8 3.2 1.2
v 0.8 3.2 1
v 0.8 3.2 -1.3
v 0.8 3.3 1.3
v 0.8 3.3 1.2
v 0.8 3.3 1
v 0.8 3.3 0.9
v 0.8 3.4 1.3
v 0.8 3.4 1.2
v 0.8 3.4 1
v 0.8 3.4 0.9
v 0.8 3.5 1.2
v 0.8 3.5 1
v 0.8 3.7 1.3
v 0.8 3.7 -1.3
v 0.8 3.8 1.3
v 0.8 3.8 1.2
v 0.8 3.8 1
v 0.8 3.8 -1.3
v 0.8 3.9 1.3
v 0.8 3.9 1.2
v 0.8 3.9 1
v 0.8 3.9 0.9
v 0.8 4 1.3
v 0.8 4 1.2
v 0.8 4 1
v 0.8 4 0.9
v 0.8 4.1 1.2
v 0.8 4.1 1
v 0.8 4.3 1.3
v 0.8 4.3 -1.3
v 0.9 -0.5 1.4
v 0.9 -0.5 -1.4
v 0.9 -0.4 1.3
v 0.9 -0.4 -1.3
v 0.9 -0.3 1.2
v 0.9 -0.3 1
v 0.9 -0.2 1.2
v 0.9 -0.2 1
v 0.9 0.1 1.3
v 0.9 0.1 -1.3
v 0.9 0.2 1.3
v 0.9 0.2 -1.3
v 0.9 0.3 1.2
v 0.9 0.3 1
v 0.9 0.4 1.2
v 0.9 0.4 1
v 0.9 0.7 1.3
v 0.9 0.7 -1.3
v 0.9 0.8 1.3
v 0.9 0.8 -1.3
v 0.9 0.9 1.2
v 0.9 0.9 1
v 0.9 1 1.2
v 0.9 1 1
v 0.9 1.3 1.3
v 0.9 1.3 -1.3
v 0.9 1.4 1.3
v 0.9 1.4 -1.3
v 0.9 1.5 1.2
v 0.9 1.5 1
v 0.9 1.6 1.2
v 0.9 1.6 1
v 0.9 1.9 1.3
v 0.9 1.9 -1.3
v 0.9 2 1.3
v 0.9 2 -1.3
v 0.9 2.1 1.2
v 0.9 2.1 1
v 0.9 2.2 1.2
v 0.9 2.2 1
v 0.9 2.5 1.3
v 0.9 2.5 -1.3
v 0.9 2.6 1.3
v 0.9 2.6 -1.3
v 0.9 2.7 1.2
v 0.9 2.7 1
v 0.9 2.8 1.2
v 0.9 2.8 1
v 0.9 3.1 1.3
v 0.9 3.1 -1.3
v 0.9 3.2 1.3
v 0.9 3.2 -1.3
v 0.9 3.3 1.2
v 0.9 3.3 1
v 0.9 3.4 1.2
v 0.9 3.4 1
v 0.9 3.7 1.3
v 0.9 3.7 -1.3
v 0.9 3.8 1.3
v 0.9 3.8 -1.3
v 0.9 3.9 1.2
v 0.9 3.9 1
v 0.9 4 1.2
v 0.9 4 1
v 0.9 4.3 1.3
v 0.9 4.3 -1.3
v 0.9 4.4 1.4
v 0.9 4.4 -1.4
v -0.9 -0.5 1.4
v -0.9 4.4 1.4
v 0.9 -0.5 1.4
v 0.9 4.4 1.4
v 0.8 -0.3 1.2
v 0.8 -0.2 1.2
v 0.8 0.3 1.2
v 0.8 0.4 1.2
v 0.8 0.9 1.2
v 0.8 1 1.2
v 0.8 1.5 1.2
v 0.8 1.6 1.2
v 0.8 2.1 1.2
v 0.8 2.2 1.2
v 0.8 2.7 1.2
v 0.8 2.8 1.2
v 0.8 3.3 1.2
v 0.8 3.4 1.2
v 0.8 3.9 1.2
v 0.8 4 1.2
v 0.9 -0.3 1.2
v 0.9 -0.2 1.2
v 0.9 0.3 1.2
v 0.9 0.4 1.2
v 0.9 0.9 1.2
v 0.9 1 1.2
v 0.9 1.5 1.2
v 0.9 1.6 1.2
v 0.9 2.1 1.2
v 0.9 2.2 1.2
v 0.9 2.7 1.2
v 0.9 2.8 1.2
v 0.9 3.3 1.2
v 0.9 3.4 1.2
v 0.9 3.9 1.2
v 0.9 4 1.2
v 0.8 -0.4 -1.3
v 0.8 0.1 -1.3
v 0.8 0.2 -1.3
v 0.8 0.7 -1.3
v 0.8 0.8 -1.3
v 0.8 1.3 -1.3
v 0.8 1.4 -1.3
v 0.8 1.9 -1.3
v 0.8 2 -1.3
v 0.8 2.5 -1.3
v 0.8 2.6 -1.3
v 0.8 3.1 -1.3
v 0.8 3.2 -1.3
v 0.8 3.7 -1.3
v 0.8 3.8 -1.3
v 0.8 4.3 -1.3
v 0.9 -0.4 -1.3
v 0.9 0.1 -1.3
v 0.9 0.2 -1.3
v 0.9 0.7 -1.3
v 0.9 0.8 -1.3
v 0.9 1.3 -1.3
v 0.9 1.4 -1.3
v 0.9 1.9 -1.3
v 0.9 2 -1.3
v 0.9 2.5 -1.3
v 0.9 2.6 -1.3
v 0.9 3.1 -1.3
v 0.9 3.2 -1.3
v 0.9 3.7 -1.3
v 0.9 3.8 -1.3
v 0.9 4.3 -1.3
v 0.8 -0.4 1.3
v 0.8 -0.3 1.3
v 0.8 -0.2 1.3
v 0.8 0.1 1.3
v 0.8 0.2 1.3
v 0.8 0.3 1.3
v 0.8 0.4 1.3
v 0.8 0.7 1.3
v 0.8 0.8 1.3
v 0.8 0.9 1.3
v 0.8 1 1.3
v 0.8 1.3 1.3
v 0.8 1.4 1.3
v 0.8 1.5 1.3
v 0.8 1.6 1.3
v 0.8 1.9 1.3
v 0.8 2 1.3
v 0.8 2.1 1.3
v 0.8 2.2 1.3
v 0.8 2.5 1.3
v 0.8 2.6 1.3
v 0.8 2.7 1.3
v 0.8 2.8 1.3
v 0.8 3.1 1.3
v 0.8 3.2 1.3
v 0.8 3.3 1.3
v 0.8 3.4 1.3
v 0.8 3.7 1.3
v 0.8 3.8 1.3
v 0.8 3.9 1.3
v 0.8 4 1.3
v 0.8 4.3 1.3
v 0.9 -0.4 1.3
v 0.9 0.1 1.3
v 0.9 0.2 1.3
v 0.9 0.7 1.3
v 0.9 0.8 1.3
v 0.9 1.3 1.3
v 0.9 1.4 1.3
v 0.9 1.9 1.3
v 0.9 2 1.3
v 0.9 2.5 1.3
v 0.9 2.6 1.3
v 0.9 3.1 1.3
v 0.9 3.2 1.3
v 0.9 3.7 1.3
v 0.9 3.8 1.3
v 0.9 4.3 1.3
v 0.8 -0.3 1
v 0.8 -0.2 1
v 0.8 0.3 1
v 0.8 0.4 1
v 0.8 0.9 1
v 0.8 1 1
v 0.8 1.5 1
v 0.8 1.6 1
v 0.8 2.1 1
v 0.8 2.2 1
v 0.8 2.7 1
v 0.8 2.8 1
v 0.8 3.3 1
v 0.8 3.4 1
v 0.8 3.9 1
v 0.8 4 1
v 0.9 -0.3 1
v 0.9 -0.2 1
v 0.9 0.3 1
v 0.9 0.4 1
v 0.9 0.9 1
v 0.9 1 1
v 0.9 1.5 1
v 0.9 1.6 1
v 0.9 2.1 1
v 0.9 2.2 1
v 0.9 2.7 1
v 0.9 2.8 1
v 0.9 3.3 1
v 0.9 3.4 1
v 0.9 3.9 1
v 0.9 4 1
v -0.9 -0.5 -1.4
v -0.9 4.4 -1.4
v 0.9 -0.5 -1.4
v 0.9 4.4 -1.4
v -0.9 -0.5 1.4
v 0.9 -0.5 1.4
v -0.9 -0.5 -1.4
v 0.9 -0.5 -1.4
v 0.8 -0.3 1.2
v 0.9 -0.3 1.2
v 0.8 -0.3 1
v 0.9 -0.3 1
v 0.8 0.1 1.3
v 0.9 0.1 1.3
v 0.8 0.1 -1.3
v 0.9 0.1 -1.3
v 0.8 0.3 1.2
v 0.9 0.3 1.2
v 0.8 0.3 1
v 0.9 0.3 1
v 0.8 0.7 1.3
v 0.9 0.7 1.3
v 0.8 0.7 -1.3
v 0.9 0.7 -1.3
v 0.8 0.9 1.2
v 0.9 0.9 1.2
v 0.8 0.9 1
v 0.9 0.9 1
v 0.8 1.3 1.3
v 0.9 1.3 1.3
v 0.8 1.3 -1.3
v 0.9 1.3 -1.3
v 0.8 1.5 1.2
v 0.9 1.5 1.2
v 0.8 1.5 1
v 0.9 1.5 1
v 0.8 1.9 1.3
v 0.9 1.9 1.3
v 0.8 1.9 -1.3
v 0.9 1.9 -1.3
v 0.8 2.1 1.2
v 0.9 2.1 1.2
v 0.8 2.1 1
v 0.9 2.1 1
v 0.8 2.5 1.3
v 0.9 2.5 1.3
v 0.8 2.5 -1.3
v 0.9 2.5 -1.3
v 0.8 2.7 1.2
v 0.9 2.7 1.2
v 0.8 2.7 1
v 0.9 2.7 1
v 0.8 3.1 1.3
v 0.9 3.1 1.3
v 0.8 3.1 -1.3
v 0.9 3.1 -1.3
v 0.8 3.3 1.2
v 0.9 3.3 1.2
v 0.8 3.3 1
v 0.9 3.3 1
v 0.8 3.7 1.3
v 0.9 3.7 1.3
v 0.8 3.7 -1.3
v 0.9 3.7 -1.3
v 0.8 3.9 1.2
v 0.9 3.9 1.2
v 0.8 3.9 1
v 0.9 3.9 1
v 0.8 4.3 1.3
v 0.9 4.3 1.3
v 0.8 4.3 -1.3
v 0.9 4.3 -1.3
v 0.8 -0.4 1.3
v 0.9 -0.4 1.3
v 0.8 -0.4 1.2
v 0.8 -0.4 1
v 0.8 -0.4 -1.3
v 0.9 -0.4 -1.3
v 0.8 -0.2 1.2
v 0.9 -0.2 1.2
v 0.8 -0.2 1
v 0.9 -0.2 1
v 0.8 0.2 1.3
v 0.9 0.2 1.3
v 0.8 0.2 1.2
v 0.8 0.2 1
v 0.8 0.2 -1.3
v 0.9 0.2 -1.3
v 0.8 0.4 1.2
v 0.9 0.4 1.2
v 0.8 0.4 1
v 0.9 0.4 1
v 0.8 0.8 1.3
v 0.9 0.8 1.3
v 0.8 0.8 1.2
v 0.8 0.8 1
v 0.8 0.8 -1.3
v 0.9 0.8 -1.3
v 0.8 1 1.2
v 0.9 1 1.2
v 0.8 1 1
v 0.9 1 1
v 0.8 1.4 1.3
v 0.9 1.4 1.3
v 0.8 1.4 1.2
v 0.8 1.4 1
v 0.8 1.4 -1.3
v 0.9 1.4 -1.3
v 0.8 1.6 1.2
v 0.9 1.6 1.2
v 0.8 1.6 1
v 0.9 1.6 1
v 0.8 2 1.3
v 0.9 2 1.3
v 0.8 2 1.2
v 0.8 2 1
v 0.8 2 -1.3
v 0.9 2 -1.3
v 0.8 2.2 1.2
v 0.9 2.2 1.2
v 0.8 2.2 1
v 0.9 2.2 1
v 0.8 2.6 1.3
v 0.9 2.6 1.3
v 0.8 2.6 1.2
v 0.8 2.6 1
v 0.8 2.6 -1.3
v 0.9 2.6 -1.3
v 0.8 2.8 1.2
v 0.9 2.8 1.2
v 0.8 2.8 1
v 0.9 2.8 1
v 0.8 3.2 1.3
v 0.9 3.2 1.3
v 0.8 3.2 1.2
v 0.8 3.2 1
v 0.8 3.2 -1.3
v 0.9 3.2 -1.3
v 0.8 3.4 1.2
v 0.9 3.4 1.2
v 0.8 3.4 1
v 0.9 3.4 1
v 0.8 3.8 1.3
v 0.9 3.8 1.3
v 0.8 3.8 1.2
v 0.8 3.8 1
v 0.8 3.8 -1.3
v 0.9 3.8 -1.3
v 0.8 4 1.2
v 0.9 4 1.2
v 0.8 4 1
v 0.9 4 1
v -0.9 4.4 1.4
v 0.9 4.4 1.4
v -0.9 4.4 -1.4
v 0.9 4.4 -1.4

# faces
f 3/2/1 2/2/1 1/2/1
f 4/2/1 2/2/1 3/2/1
f 5/4/2 6/4/2 9/4/2
f 6/3/2 7/3/2 10/3/2
f 9/4/2 6/4/2 10/4/2
f 7/4/2 8/4/2 11/4/2
f 10/3/2 7/3/2 11/3/2
f 11/4/2 8/4/2 12/4/2
f 9/3/2 10/3/2 13/3/2
f 13/3/2 10/3/2 14/3/2
f 11/3/2 12/3/2 15/3/2
f 12/4/2 8/4/2 16/4/2
f 15/3/2 12/3/2 16/3/2
f 14/3/2 15/3/2 17/3/2
f 13/4/2 14/4/2 17/4/2
f 15/4/2 16/4/2 18/4/2
f 17/3/2 15/3/2 18/3/2
f 13/4/2 17/4/2 19/4/2
f 17/4/2 18/4/2 19/4/2
f 16/4/2 8/4/2 20/4/2
f 19/4/2 18/4/2 20/4/2
f 18/4/2 16/4/2 20/4/2
f 21/4/2 22/4/2 25/4/2
f 22/3/2 23/3/2 26/3/2
f 25/4/2 22/4/2 26/4/2
f 23/4/2 24/4/2 27/4/2
f 26/3/2 23/3/2 27/3/2
f 27/4/2 24/4/2 28/4/2
f 25/3/2 26/3/2 29/3/2
f 29/3/2 26/3/2 30/3/2
f 27/3/2 28/3/2 31/3/2
f 28/4/2 24/4/2 32/4/2
f 31/3/2 28/3/2 32/3/2
f 30/3/2 31/3/2 33/3/2
f 29/4/2 30/4/2 33/4/2
f 31/4/2 32/4/2 34/4/2
f 33/3/2 31/3/2 34/3/2
f 29/4/2 33/4/2 35/4/2
f 33/4/2 34/4/2 35/4/2
f 32/4/2 24/4/2 36/4/2
f 35/4/2 34/4/2 36/4/2
f 34/4/2 32/4/2 36/4/2
f 37/4/2 38/4/2 41/4/2
f 38/3/2 39/3/2 42/3/2
f 41/4/2 38/4/2 42/4/2
f 39/4/2 40/4/2 43/4/2
f 42/3/2 39/3/2 43/3/2
f 43/4/2 40/4/2 44/4/2
f 41/3/2 42/3/2 45/3/2
f 45/3/2 42/3/2 46/3/2
f 43/3/2 44/3/2 47/3/2
f 44/4/2 40/4/2 48/4/2
f 47/3/2 44/3/2 48/3/2
f 46/3/2 47/3/2 49/3/2
f 45/4/2 46/4/2 49/4/2
f 47/4/2 48/4/2 50/4/2
f 49/3/2 47/3/2 50/3/2
f 45/4/2 49/4/2 51/4/2
f 49/4/2 50/4/2 51/4/2
f 48/4/2 40/4/2 52/4/2
f 51/4/2 50/4/2 52/4/2
f 50/4/2 48/4/2 52/4/2
f 53/4/2 54/4/2 57/4/2
f 54/3/2 55/3/2 58/3/2
f 57/4/2 54/4/2 58/4/2
f 55/4/2 56/4/2 59/4/2
f 58/3/2 55/3/2 59/3/2
f 59/4/2 56/4/2 60/4/2
f 57/3/2 58/3/2 61/3/2
f 61/3/2 58/3/2 62/3/2
f 59/3/2 60/3/2 63/3/2
f 60/4/2 56/4/2 64/4/2
f 63/3/2 60/3/2 64/3/2
f 62/3/2 63/3/2 65/3/2
f 61/4/2 62/4/2 65/4/2
f 63/4/2 64/4/2 66/4/2
f 65/3/2 63/3/2 66/3/2
f 61/4/2 65/4/2 67/4/2
f 65/4/2 66/4/2 67/4/2
f 64/4/2 56/4/2 68/4/2
f 67/4/2 66/4/2 68/4/2
f 66/4/2 64/4/2 68/4/2
f 69/4/2 70/4/2 73/4/2
f 70/3/2 71/3/2 74/3/2
f 73/4/2 70/4/2 74/4/2
f 71/4/2 72/4/2 75/4/2
f 74/3/2 71/3/2 75/3/2
f 75/4/2 72/4/2 76/4/2
f 73/3/2 74/3/2 77/3/2
f 77/3/2 74/3/2 78/3/2
f 75/3/2 76/3/2 79/3/2
f 76/4/2 72/4/2 80/4/2
f 79/3/2 76/3/2 80/3/2
f 78/3/2 79/3/2 81/3/2
f 77/4/2 78/4/2 81/4/2
f 79/4/2 80/4/2 82/4/2
f 81/3/2 79/3/2 82/3/2
f 77/4/2 81/4/2 83/4/2
f 81/4/2 82/4/2 83/4/2
f 80/4/2 72/4/2 84/4/2
f 83/4/2 82/4/2 84/4/2
f 82/4/2 80/4/2 84/4/2
f 85/4/2 86/4/2 89/4/2
f 86/3/2 87/3/2 90/3/2
f 89/4/2 86/4/2 90/4/2
f 87/4/2 88/4/2 91/4/2
f 90/3/2 87/3/2 91/3/2
f 91/4/2 88/4/2 92/4/2
f 89/3/2 90/3/2 93/3/2
f 93/3/2 90/3/2 94/3/2
f 91/3/2 92/3/2 95/3/2
f 92/4/2 88/4/2 96/4/2
f 95/3/2 92/3/2 96/3/2
f 94/3/2 95/3/2 97/3/2
f 93/4/2 94/4/2 97/4/2
f 95/4/2 96/4/2 98/4/2
f 97/3/2 95/3/2 98/3/2
f 93/4/2 97/4/2 99/4/2
f 97/4/2 98/4/2 99/4/2
f 96/4/2 88/4/2 100/4/2
f 99/4/2 98/4/2 100/4/2
f 98/4/2 96/4/2 100/4/2
f 101/4/2 102/4/2 105/4/2
f 102/3/2 103/3/2 106/3/2
f 105/4/2 102/4/2 106/4/2
f 103/4/2 104/4/2 107/4/2
f 106/3/2 103/3/2 107/3/2
f 107/4/2 104/4/2 108/4/2
f 105/3/2 106/3/2 109/3/2
f 109/3/2 106/3/2 110/3/2
f 107/3/2 108/3/2 111/3/2
f 108/4/2 104/4/2 112/4/2
f 111/3/2 108/3/2 112/3/2
f 110/3/2 111/3/2 113/3/2
f 109/4/2 110/4/2 113/4/2
f 111/4/2 112/4/2 114/4/2
f 113/3/2 111/3/2 114/3/2
f 109/4/2 113/4/2 115/4/2
f 113/4/2 114/4/2 115/4/2
f 112/4/2 104/4/2 116/4/2
f 115/4/2 114/4/2 116/4/2
f 114/4/2 112/4/2 116/4/2
f 117/4/2 118/4/2 121/4/2
f 118/3/2 119/3/2 122/3/2
f 121/4/2 118/4/2 122/4/2
f 119/4/2 120/4/2 123/4/2
f 122/3/2 119/3/2 123/3/2
f 123/4/2 120/4/2 124/4/2
f 121/3/2 122/3/2 125/3/2
f 125/3/2 122/3/2 126/3/2
f 123/3/2 124/3/2 127/3/2
f 124/4/2 120/4/2 128/4/2
f 127/3/2 124/3/2 128/3/2
f 126/3/2 127/3/2 129/3/2
f 125/4/2 126/4/2 129/4/2
f 127/4/2 128/4/2 130/4/2
f 129/3/2 127/3/2 130/3/2
f 125/4/2 129/4/2 131/4/2
f 129/4/2 130/4/2 131/4/2
f 128/4/2 120/4/2 132/4/2
f 131/4/2 130/4/2 132/4/2
f 130/4/2 128/4/2 132/4/2
f 133/2/2 134/2/2 135/2/2
f 135/2/2 134/2/2 136/2/2
f 137/1/2 138/1/2 139/1/2
f 139/1/2 138/1/2 140/1/2
f 133/2/2 135/2/2 141/2/2
f 136/2/2 134/2/2 142/2/2
f 133/2/2 141/2/2 143/2/2
f 141/2/2 142/2/2 143/2/2
f 142/2/2 134/2/2 144/2/2
f 143/2/2 142/2/2 144/2/2
f 145/1/2 146/1/2 147/1/2
f 147/1/2 146/1/2 148/1/2
f 133/2/2 143/2/2 149/2/2
f 144/2/2 134/2/2 150/2/2
f 133/2/2 149/2/2 151/2/2
f 149/2/2 150/2/2 151/2/2
f 150/2/2 134/2/2 152/2/2
f 151/2/2 150/2/2 152/2/2
f 153/1/2 154/1/2 155/1/2
f 155/1/2 154/1/2 156/1/2
f 133/2/2 151/2/2 157/2/2
f 152/2/2 134/2/2 158/2/2
f 133/2/2 157/2/2 159/2/2
f 157/2/2 158/2/2 159/2/2
f 158/2/2 134/2/2 160/2/2
f 159/2/2 158/2/2 160/2/2
f 161/1/2 162/1/2 163/1/2
f 163/1/2 162/1/2 164/1/2
f 133/2/2 159/2/2 165/2/2
f 160/2/2 134/2/2 166/2/2
f 133/2/2 165/2/2 167/2/2
f 165/2/2 166/2/2 167/2/2
f 166/2/2 134/2/2 168/2/2
f 167/2/2 166/2/2 168/2/2
f 169/1/2 170/1/2 171/1/2
f 171/1/2 170/1/2 172/1/2
f 133/2/2 167/2/2 173/2/2
f 168/2/2 134/2/2 174/2/2
f 133/2/2 173/2/2 175/2/2
f 173/2/2 174/2/2 175/2/2
f 174/2/2 134/2/2 176/2/2
f 175/2/2 174/2/2 176/2/2
f 177/1/2 178/1/2 179/1/2
f 179/1/2 178/1/2 180/1/2
f 133/2/2 175/2/2 181/2/2
f 176/2/2 134/2/2 182/2/2
f 133/2/2 181/2/2 183/2/2
f 181/2/2 182/2/2 183/2/2
f 182/2/2 134/2/2 184/2/2
f 183/2/2 182/2/2 184/2/2
f 185/1/2 186/1/2 187/1/2
f 187/1/2 186/1/2 188/1/2
f 133/2/2 183/2/2 189/2/2
f 184/2/2 134/2/2 190/2/2
f 133/2/2 189/2/2 191/2/2
f 189/2/2 190/2/2 191/2/2
f 190/2/2 134/2/2 192/2/2
f 191/2/2 190/2/2 192/2/2
f 193/1/2 194/1/2 195/1/2
f 195/1/2 194/1/2 196/1/2
f 133/2/2 191/2/2 197/2/2
f 192/2/2 134/2/2 198/2/2
f 133/2/2 197/2/2 199/2/2
f 197/2/2 198/2/2 199/2/2
f 198/2/2 134/2/2 200/2/2
f 199/2/2 198/2/2 200/2/2
f 203/2/3 202/2/3 201/2/3
f 204/2/3 202/2/3 203/2/3
f 221/1/3 206/1/3 205/1/3
f 222/1/3 206/1/3 221/1/3
f 223/1/3 208/1/3 207/1/3
f 224/1/3 208/1/3 223/1/3
f 225/1/3 210/1/3 209/1/3
f 226/1/3 210/1/3 225/1/3
f 227/1/3 212/1/3 211/1/3
f 228/1/3 212/1/3 227/1/3
f 229/1/3 214/1/3 213/1/3
f 230/1/3 214/1/3 229/1/3
f 231/1/3 216/1/3 215/1/3
f 232/1/3 216/1/3 231/1/3
f 233/1/3 218/1/3 217/1/3
f 234/1/3 218/1/3 233/1/3
f 235/1/3 220/1/3 219/1/3
f 236/1/3 220/1/3 235/1/3
f 253/2/3 238/2/3 237/2/3
f 254/2/3 238/2/3 253/2/3
f 255/2/3 240/2/3 239/2/3
f 256/2/3 240/2/3 255/2/3
f 257/2/3 242/2/3 241/2/3
f 258/2/3 242/2/3 257/2/3
f 259/2/3 244/2/3 243/2/3
f 260/2/3 244/2/3 259/2/3
f 261/2/3 246/2/3 245/2/3
f 262/2/3 246/2/3 261/2/3
f 263/2/3 248/2/3 247/2/3
f 264/2/3 248/2/3 263/2/3
f 265/2/3 250/2/3 249/2/3
f 266/2/3 250/2/3 265/2/3
f 267/2/3 252/2/3 251/2/3
f 268/2/3 252/2/3 267/2/3
f 269/2/4 270/2/4 301/2/4
f 270/2/4 271/2/4 301/2/4
f 271/2/4 272/2/4 301/2/4
f 301/2/4 272/2/4 302/2/4
f 273/2/4 274/2/4 303/2/4
f 274/2/4 275/2/4 303/2/4
f 275/2/4 276/2/4 303/2/4
f 303/2/4 276/2/4 304/2/4
f 277/2/4 278/2/4 305/2/4
f 278/2/4 279/2/4 305/2/4
f 279/2/4 280/2/4 305/2/4
f 305/2/4 280/2/4 306/2/4
f 281/2/4 282/2/4 307/2/4
f 282/2/4 283/2/4 307/2/4
f 283/2/4 284/2/4 307/2/4
f 307/2/4 284/2/4 308/2/4
f 285/2/4 286/2/4 309/2/4
f 286/2/4 287/2/4 309/2/4
f 287/2/4 288/2/4 309/2/4
f 309/2/4 288/2/4 310/2/4
f 291/2/4 292/2/4 311/2/4
f 289/2/4 290/2/4 311/2/4
f 290/2/4 291/2/4 311/2/4
f 311/2/4 292/2/4 312/2/4
f 295/2/4 296/2/4 313/2/4
f 294/2/4 295/2/4 313/2/4
f 293/2/4 294/2/4 313/2/4
f 313/2/4 296/2/4 314/2/4
f 299/2/4 300/2/4 315/2/4
f 298/2/4 299/2/4 315/2/4
f 297/2/4 298/2/4 315/2/4
f 315/2/4 300/2/4 316/2/4
f 317/1/4 318/1/4 333/1/4
f 333/1/4 318/1/4 334/1/4
f 319/1/4 320/1/4 335/1/4
f 335/1/4 320/1/4 336/1/4
f 321/1/4 322/1/4 337/1/4
f 337/1/4 322/1/4 338/1/4
f 323/1/4 324/1/4 339/1/4
f 339/1/4 324/1/4 340/1/4
f 325/1/4 326/1/4 341/1/4
f 341/1/4 326/1/4 342/1/4
f 327/1/4 328/1/4 343/1/4
f 343/1/4 328/1/4 344/1/4
f 329/1/4 330/1/4 345/1/4
f 345/1/4 330/1/4 346/1/4
f 331/1/4 332/1/4 347/1/4
f 347/1/4 332/1/4 348/1/4
f 349/2/4 350/2/4 351/2/4
f 351/2/4 350/2/4 352/2/4
f 355/2/5 354/2/5 353/2/5
f 356/2/5 354/2/5 355/2/5
f 359/1/5 358/1/5 357/1/5
f 360/1/5 358/1/5 359/1/5
f 363/2/5 362/2/5 361/2/5
f 364/2/5 362/2/5 363/2/5
f 367/1/5 366/1/5 365/1/5
f 368/1/5 366/1/5 367/1/5
f 371/2/5 370/2/5 369/2/5
f 372/2/5 370/2/5 371/2/5
f 375/1/5 374/1/5 373/1/5
f 376/1/5 374/1/5 375/1/5
f 379/2/5 378/2/5 377/2/5
f 380/2/5 378/2/5 379/2/5
f 383/1/5 382/1/5 381/1/5
f 384/1/5 382/1/5 383/1/5
f 387/2/5 386/2/5 385/2/5
f 388/2/5 386/2/5 387/2/5
f 391/1/5 390/1/5 389/1/5
f 392/1/5 390/1/5 391/1/5
f 395/2/5 394/2/5 393/2/5
f 396/2/5 394/2/5 395/2/5
f 399/1/5 398/1/5 397/1/5
f 400/1/5 398/1/5 399/1/5
f 403/2/5 402/2/5 401/2/5
f 404/2/5 402/2/5 403/2/5
f 407/1/5 406/1/5 405/1/5
f 408/1/5 406/1/5 407/1/5
f 411/2/5 410/2/5 409/2/5
f 412/2/5 410/2/5 411/2/5
f 415/1/5 414/1/5 413/1/5
f 416/1/5 414/1/5 415/1/5
f 419/2/5 418/2/5 417/2/5
f 420/2/5 418/2/5 419/2/5
f 421/2/6 422/2/6 423/2/6
f 423/2/6 422/2/6 424/2/6
f 424/2/6 422/2/6 425/2/6
f 425/2/6 422/2/6 426/2/6
f 427/1/6 428/1/6 429/1/6
f 429/1/6 428/1/6 430/1/6
f 431/2/6 432/2/6 433/2/6
f 433/2/6 432/2/6 434/2/6
f 434/2/6 432/2/6 435/2/6
f 435/2/6 432/2/6 436/2/6
f 437/1/6 438/1/6 439/1/6
f 439/1/6 438/1/6 440/1/6
f 441/2/6 442/2/6 443/2/6
f 443/2/6 442/2/6 444/2/6
f 444/2/6 442/2/6 445/2/6
f 445/2/6 442/2/6 446/2/6
f 447/1/6 448/1/6 449/1/6
f 449/1/6 448/1/6 450/1/6
f 451/2/6 452/2/6 453/2/6
f 453/2/6 452/2/6 454/2/6
f 454/2/6 452/2/6 455/2/6
f 455/2/6 452/2/6 456/2/6
f 457/1/6 458/1/6 459/1/6
f 459/1/6 458/1/6 460/1/6
f 461/2/6 462/2/6 463/2/6
f 463/2/6 462/2/6 464/2/6
f 464/2/6 462/2/6 465/2/6
f 465/2/6 462/2/6 466/2/6
f 467/1/6 468/1/6 469/1/6
f 469/1/6 468/1/6 470/1/6
f 471/2/6 472/2/6 473/2/6
f 473/2/6 472/2/6 474/2/6
f 474/2/6 472/2/6 475/2/6
f 475/2/6 472/2/6 476/2/6
f 477/1/6 478/1/6 479/1/6
f 479/1/6 478/1/6 480/1/6
f 481/2/6 482/2/6 483/2/6
f 483/2/6 482/2/6 484/2/6
f 484/2/6 482/2/6 485/2/6
f 485/2/6 482/2/6 486/2/6
f 487/1/6 488/1/6 489/1/6
f 489/1/6 488/1/6 490/1/6
f 491/2/6 492/2/6 493/2/6
f 493/2/6 492/2/6 494/2/6
f 494/2/6 492/2/6 495/2/6
f 495/2/6 492/2/6 496/2/6
f 497/1/6 498/1/6 499/1/6
f 499/1/6 498/1/6 500/1/6
f 501/2/6 502/2/6 503/2/6
f 503/2/6 502/2/6 504/2/6
